# xmcd CD database file
#
# Track frame offsets:
#	150
#	4625
#	16175
#	25112
#	30932
#	40165
#	45162
#	56863
#	71349
#
# Disc length: 1090 seconds
#
# Revision: 0
# Processed by: cddbd v1.5.1PL0 Copyright (c) Steve Scherf et al.
# Submitted via: CDex 1.51
#
DISCID=5a044009
DTITLE=Pretty and Nice - EP
DYEAR=2004
DGENRE=Rhythmic Soul
TTITLE0=C-Legs
TTITLE1=Space
TTITLE2=Gramophone
TTITLE3=Razz the Beatbox
TTITLE4=Mammoth
TTITLE5=Casio Filibusters
TTITLE6=Sean O'Malley
TTITLE7=Stop/Start
TTITLE8=Horseflies
EXTD=YEAR: 2004
EXTT0=
EXTT1=
EXTT2=
EXTT3=
EXTT4=
EXTT5=
EXTT6=
EXTT7=
EXTT8=
PLAYORDER=
